<svg width="80.000000" height="18.796875" viewBox="0 0 80 18.7969" fill="none" xmlns="http://www.w3.org/2000/svg" xmlns:xlink="http://www.w3.org/1999/xlink">
	<desc>
			Created with Pixso.
	</desc>
	<defs>
		<clipPath id="clip116_3064">
			<rect id="bx:bxl-facebook" width="12.427184" height="12.030075" transform="translate(3.106934 3.007324)" fill="white" fill-opacity="0"/>
		</clipPath>
		<clipPath id="clip116_3068">
			<rect id="akar-icons:twitter-fill" width="12.427184" height="12.030075" transform="translate(63.689941 3.007324)" fill="white" fill-opacity="0"/>
		</clipPath>
		<clipPath id="clip116_3073">
			<rect id="bx:bxl-instagram-alt" width="12.427184" height="12.030075" transform="translate(33.398438 3.007324)" fill="white" fill-opacity="0"/>
		</clipPath>
	</defs>
	<ellipse id="Ellipse 41" cx="9.708740" cy="9.398438" rx="9.708738" ry="9.398497" fill="#151875" fill-opacity="1.000000"/>
	<rect id="bx:bxl-facebook" width="12.427184" height="12.030075" transform="translate(3.106934 3.007324)" fill="#FFFFFF" fill-opacity="0"/>
	<g clip-path="url(#clip116_3064)">
		<path id="Vector" d="M10.8201 13.5322L10.8201 9.42432L12.252 9.42432L12.4646 7.81543L10.8201 7.81543L10.8201 6.79102C10.8201 6.32666 10.9536 6.00928 11.6418 6.00928L12.5139 6.00928L12.5139 4.5752C12.0896 4.53076 11.6631 4.50977 11.2366 4.51123C9.97095 4.51123 9.10205 5.25928 9.10205 6.63232L9.10205 7.8125L7.67969 7.8125L7.67969 9.4209L9.10522 9.4209L9.10522 13.5322L10.8201 13.5322Z" fill="#FFFFFF" fill-opacity="1.000000" fill-rule="nonzero"/>
	</g>
	<ellipse id="Ellipse 43" cx="70.291260" cy="9.398438" rx="9.708738" ry="9.398497" fill="#151875" fill-opacity="1.000000"/>
	<rect id="akar-icons:twitter-fill" width="12.427184" height="12.030075" transform="translate(63.689941 3.007324)" fill="#FFFFFF" fill-opacity="0"/>
	<g clip-path="url(#clip116_3068)">
		<path id="Vector" d="M75.9319 5.48242C75.4995 5.66797 75.0352 5.79297 74.5469 5.84961C75.0508 5.55762 75.4275 5.09863 75.6072 4.55762C75.134 4.82959 74.616 5.021 74.0757 5.12402C73.7124 4.74854 73.2312 4.49951 72.7068 4.41602C72.1824 4.33203 71.644 4.41846 71.1755 4.66113C70.707 4.9043 70.3345 5.29004 70.1155 5.75879C69.8967 6.22754 69.844 6.75342 69.9653 7.25439C69.0063 7.20752 68.0679 6.96631 67.2114 6.5459C66.3547 6.12549 65.5991 5.53564 64.9934 4.81396C64.7864 5.16016 64.6672 5.56104 64.6672 5.98779C64.667 6.37256 64.7649 6.75098 64.9519 7.09033C65.1392 7.4292 65.4099 7.71826 65.74 7.93213C65.3572 7.91992 64.9824 7.81982 64.6475 7.63965L64.6475 7.66992C64.6475 8.20898 64.8401 8.73145 65.1929 9.14893C65.5457 9.56641 66.0366 9.85254 66.5825 9.95947C66.2273 10.0527 65.8547 10.0664 65.4932 9.99951C65.6472 10.4634 65.9473 10.8691 66.3513 11.1602C66.7554 11.4507 67.2432 11.6118 67.7466 11.6206C66.8921 12.27 65.8369 12.6221 64.7505 12.6206C64.5581 12.6206 64.366 12.6099 64.1748 12.5879C65.2773 13.2744 66.561 13.6387 67.8718 13.6372C72.3093 13.6372 74.7354 10.0791 74.7354 6.99365C74.7354 6.89307 74.7327 6.79199 74.728 6.69189C75.2 6.36133 75.6072 5.95215 75.9309 5.48389L75.9319 5.48242Z" fill="#FFFFFF" fill-opacity="1.000000" fill-rule="nonzero"/>
	</g>
	<ellipse id="Ellipse 42" cx="40.000000" cy="9.398438" rx="9.708738" ry="9.398497" fill="#151875" fill-opacity="1.000000"/>
	<rect id="bx:bxl-instagram-alt" width="12.427184" height="12.030075" transform="translate(33.398438 3.007324)" fill="#FFFFFF" fill-opacity="0"/>
	<g clip-path="url(#clip116_3073)">
		<path id="Vector" d="M44.2446 7.17041C44.2395 6.79102 44.166 6.41504 44.0278 6.06006C43.9077 5.76025 43.7246 5.48779 43.4897 5.26074C43.2551 5.03369 42.9739 4.85596 42.6643 4.74023C42.302 4.6084 41.9194 4.53711 41.5325 4.5293C41.0344 4.50781 40.8765 4.50195 39.6121 4.50195C38.3474 4.50195 38.1853 4.50195 37.6909 4.5293C37.3042 4.53711 36.9216 4.6084 36.5596 4.74023C36.25 4.85596 35.9688 5.0332 35.7339 5.26074C35.4993 5.48779 35.3159 5.76025 35.196 6.06006C35.0598 6.41016 34.9866 6.78076 34.9792 7.15527C34.957 7.6377 34.9502 7.79053 34.9502 9.01465C34.9502 10.2388 34.9502 10.395 34.9792 10.8745C34.9871 11.2495 35.0601 11.6191 35.196 11.9707C35.3162 12.27 35.4995 12.5425 35.7344 12.7695C35.9692 12.9966 36.2505 13.1738 36.5601 13.29C36.9211 13.4268 37.3037 13.5029 37.6914 13.5156C38.1902 13.5371 38.3479 13.5435 39.6125 13.5435C40.877 13.5435 41.0391 13.5435 41.5334 13.5156C41.9204 13.5083 42.3032 13.437 42.6653 13.3057C42.9749 13.1895 43.2559 13.0117 43.4907 12.7847C43.7253 12.5571 43.9087 12.2852 44.0288 11.9858C44.165 11.6348 44.238 11.2646 44.2458 10.8896C44.2681 10.4072 44.2747 10.2544 44.2747 9.02979C44.2737 7.80566 44.2737 7.65039 44.2446 7.17041ZM39.6089 11.3296C38.2864 11.3296 37.2151 10.2925 37.2151 9.01221C37.2151 7.73193 38.2864 6.69482 39.6089 6.69482C40.2437 6.69482 40.8525 6.93896 41.3015 7.37354C41.7505 7.80811 42.0027 8.39746 42.0027 9.01221C42.0027 9.62695 41.7505 10.2163 41.3015 10.6509C40.8525 11.0854 40.2437 11.3296 39.6089 11.3296ZM42.0979 7.14941C41.7888 7.14941 41.5398 6.9082 41.5398 6.60938C41.5398 6.53809 41.5542 6.46826 41.5823 6.40234C41.6101 6.33691 41.6514 6.27734 41.7031 6.22754C41.7549 6.17725 41.8164 6.13721 41.884 6.11035C41.9519 6.08301 42.0244 6.06934 42.0977 6.06934C42.1709 6.06934 42.2434 6.08301 42.311 6.11035C42.3789 6.13721 42.4404 6.17725 42.4922 6.22754C42.5439 6.27734 42.585 6.33691 42.613 6.40234C42.6411 6.46826 42.6555 6.53809 42.6555 6.60938C42.6555 6.9082 42.406 7.14941 42.0979 7.14941Z" fill="#FFFFFF" fill-opacity="1.000000" fill-rule="nonzero"/>
		<path id="Vector" d="M41.1636 9.01221C41.1636 9.84326 40.4675 10.5176 39.6086 10.5176C38.75 10.5176 38.0537 9.84326 38.0537 9.01221C38.0537 8.18066 38.75 7.50684 39.6086 7.50684C40.4675 7.50684 41.1636 8.18066 41.1636 9.01221Z" fill="#FFFFFF" fill-opacity="1.000000" fill-rule="evenodd"/>
	</g>
</svg>
